<?xml version="1.0" standalone="no"?>
<!DOCTYPE svg PUBLIC "-//W3C//DTD SVG 20010904//EN"
 "http://www.w3.org/TR/2001/REC-SVG-20010904/DTD/svg10.dtd">
<svg version="1.0" xmlns="http://www.w3.org/2000/svg"
 width="968.000000pt" height="968.000000pt" viewBox="0 0 968.000000 968.000000"
 preserveAspectRatio="xMidYMid meet">
<metadata>
Created by potrace 1.11, written by Peter Selinger 2001-2013
</metadata>
<g transform="translate(0.000000,968.000000) scale(0.100000,-0.100000)"
fill="#000000" stroke="none">
<path d="M3349 9386 c-2 -2 -35 -6 -73 -10 -74 -7 -196 -23 -230 -31 -12 -3
-32 -7 -46 -9 -85 -14 -306 -78 -450 -131 -98 -36 -278 -121 -385 -181 -576
-323 -1017 -827 -1312 -1494 -35 -80 -91 -252 -122 -375 -36 -143 -50 -228
-70 -410 -9 -85 -7 -439 3 -515 4 -25 8 -58 11 -75 2 -16 7 -52 10 -80 4 -27
8 -61 11 -75 2 -14 6 -43 9 -65 7 -49 13 -79 15 -82 4 -5 8 -23 9 -49 0 -14 5
-23 9 -20 4 3 7 -9 6 -25 -1 -16 4 -36 12 -43 11 -11 11 -16 1 -19 -9 -4 -9
-6 1 -6 7 -1 11 -5 8 -10 -8 -12 31 -116 42 -114 5 1 7 -9 4 -22 -3 -16 2 -31
15 -42 10 -10 14 -14 7 -10 -8 5 -6 -8 4 -37 9 -24 20 -42 24 -40 4 3 8 -4 8
-15 0 -30 11 -52 23 -44 6 3 7 1 3 -5 -8 -13 10 -51 33 -70 9 -8 10 -11 3 -7
-10 5 -10 1 -1 -19 7 -14 16 -23 20 -20 5 3 6 -2 3 -10 -3 -9 -1 -16 5 -16 6
0 11 -7 11 -16 0 -8 4 -12 10 -9 5 3 7 0 4 -9 -3 -8 3 -23 13 -33 11 -11 17
-25 15 -33 -3 -7 0 -10 5 -7 5 3 16 -9 23 -28 8 -19 17 -35 22 -35 4 0 8 -7 8
-15 0 -8 5 -15 10 -15 6 0 10 -7 10 -15 0 -8 5 -15 10 -15 6 0 10 -5 10 -10 0
-6 19 -37 43 -68 23 -31 45 -61 49 -67 293 -393 665 -698 1105 -907 68 -32
130 -58 138 -58 10 0 13 -5 9 -12 -4 -7 -4 -10 0 -6 4 3 44 -8 89 -24 80 -30
260 -85 305 -94 12 -2 59 -13 105 -23 45 -11 102 -22 127 -25 25 -3 54 -7 65
-10 133 -28 587 -29 795 -2 335 45 723 178 1030 354 300 172 634 461 828 717
12 17 46 62 76 101 29 39 59 81 66 93 12 23 14 23 138 17 154 -7 191 -12 309
-36 258 -53 468 -161 649 -332 46 -45 83 -82 81 -84 -2 -2 -34 5 -71 16 -37
10 -84 22 -104 25 -20 4 -50 9 -67 11 -65 11 -264 10 -348 -2 -330 -49 -644
-237 -837 -503 -71 -97 -154 -253 -166 -309 -1 -8 -6 -21 -10 -30 -19 -45 -52
-188 -62 -271 -9 -79 -8 -228 3 -307 31 -239 147 -488 315 -680 172 -196 466
-357 732 -399 125 -20 292 -20 408 -1 69 11 231 56 262 72 38 20 35 12 -14
-37 -305 -295 -821 -460 -1308 -416 -354 31 -741 208 -980 447 -121 120 -137
139 -216 260 -109 166 -230 449 -269 628 -9 45 50 63 -545 -163 -221 -83 -478
-169 -552 -185 -32 -6 -59 -17 -59 -23 -5 -45 11 -184 35 -302 20 -97 64 -239
114 -366 54 -138 216 -423 304 -534 207 -265 356 -417 595 -610 72 -58 181
-135 191 -135 6 0 12 -4 14 -8 7 -17 245 -156 382 -222 176 -85 418 -175 521
-194 11 -2 38 -9 60 -15 259 -70 612 -85 929 -41 96 14 353 67 418 87 415 124
717 268 1013 480 112 80 138 101 234 188 99 90 201 198 291 311 161 201 386
652 478 959 55 185 83 323 99 500 15 150 8 549 -11 665 -2 14 -7 46 -10 71 -9
59 -14 92 -26 154 -6 28 -12 59 -14 70 -52 264 -179 592 -318 823 -378 628
-1038 1115 -1757 1297 -83 21 -254 53 -371 69 -197 28 -539 24 -770 -9 -88
-12 -129 -19 -205 -35 -27 -6 -59 -12 -70 -14 -35 -7 -227 -64 -300 -90 -151
-53 -321 -133 -465 -219 -76 -45 -207 -132 -220 -147 -3 -3 -32 -25 -65 -50
-87 -64 -124 -98 -275 -249 -148 -149 -236 -254 -337 -403 -56 -83 -64 -100
-53 -113 11 -13 10 -15 -1 -11 -8 3 -39 7 -69 11 -79 8 -100 11 -161 24 -30 6
-64 13 -77 16 -109 20 -326 96 -437 153 -106 53 -245 145 -245 162 0 13 -1 13
-10 0 -8 -13 -10 -12 -10 3 0 10 -4 16 -9 13 -5 -3 -14 1 -21 9 -9 10 -9 15
-1 15 6 0 11 -3 11 -7 0 -5 12 -8 28 -9 15 0 56 -4 92 -9 112 -13 211 -11 330
7 133 20 222 45 335 96 343 154 601 458 700 822 35 128 40 172 40 330 0 143
-4 185 -28 290 -83 356 -331 670 -662 838 -73 37 -209 88 -260 98 -11 2 -31 6
-45 9 -132 28 -252 35 -398 22 -40 -3 -78 -9 -85 -12 -35 -18 72 65 162 126
190 127 396 214 614 260 143 31 478 32 579 3 9 -3 25 -7 35 -9 191 -39 396
-127 559 -240 43 -30 103 -71 131 -90 69 -46 169 -140 258 -242 214 -244 355
-564 355 -805 0 -32 3 -58 8 -58 8 0 197 66 227 80 11 4 193 66 405 136 212
70 390 131 397 136 18 14 7 176 -23 358 -24 142 -96 386 -149 505 -91 203
-148 309 -255 470 -176 262 -388 492 -648 699 -86 68 -240 177 -287 202 -11 6
-40 23 -64 38 -55 35 -277 146 -351 176 -30 12 -64 26 -75 31 -157 68 -424
135 -700 174 -47 7 -480 17 -486 11z"/>
</g>
</svg>
